TITLE ""
FILE "LR_black_phrase_C05.mp3" MP3
  TRACK 01 AUDIO
    TITLE "LR_black_phrase_C05_001"
    INDEX 01 00:00:00
  TRACK 02 AUDIO
    TITLE "LR_black_phrase_C05_002"
    INDEX 01 00:00:14
  TRACK 03 AUDIO
    TITLE "LR_black_phrase_C05_003"
    INDEX 01 00:01:35
  TRACK 04 AUDIO
    TITLE "LR_black_phrase_C05_004"
    INDEX 01 00:01:72
  TRACK 05 AUDIO
    TITLE "LR_black_phrase_C05_005"
    INDEX 01 00:03:67
  TRACK 06 AUDIO
    TITLE "LR_black_phrase_C05_006"
    INDEX 01 00:04:67
  TRACK 07 AUDIO
    TITLE "LR_black_phrase_C05_007"
    INDEX 01 00:06:25
  TRACK 08 AUDIO
    TITLE "LR_black_phrase_C05_008"
    INDEX 01 00:06:64
  TRACK 09 AUDIO
    TITLE "LR_black_phrase_C05_009"
    INDEX 01 00:08:67
  TRACK 10 AUDIO
    TITLE "LR_black_phrase_C05_010"
    INDEX 01 00:09:17
  TRACK 11 AUDIO
    TITLE "LR_black_phrase_C05_011"
    INDEX 01 00:11:18
  TRACK 12 AUDIO
    TITLE "LR_black_phrase_C05_012"
    INDEX 01 00:12:19
  TRACK 13 AUDIO
    TITLE "LR_black_phrase_C05_013"
    INDEX 01 00:13:46
  TRACK 14 AUDIO
    TITLE "LR_black_phrase_C05_014"
    INDEX 01 00:14:12
  TRACK 15 AUDIO
    TITLE "LR_black_phrase_C05_015"
    INDEX 01 00:15:37
  TRACK 16 AUDIO
    TITLE "LR_black_phrase_C05_016"
    INDEX 01 00:16:37
  TRACK 17 AUDIO
    TITLE "LR_black_phrase_C05_017"
    INDEX 01 00:18:73
  TRACK 18 AUDIO
    TITLE "LR_black_phrase_C05_018"
    INDEX 01 00:19:37
  TRACK 19 AUDIO
    TITLE "LR_black_phrase_C05_019"
    INDEX 01 00:22:16
  TRACK 20 AUDIO
    TITLE "LR_black_phrase_C05_020"
    INDEX 01 00:22:45
  TRACK 21 AUDIO
    TITLE "LR_black_phrase_C05_021"
    INDEX 01 00:25:26
  TRACK 22 AUDIO
    TITLE "LR_black_phrase_C05_022"
    INDEX 01 00:26:25
  TRACK 23 AUDIO
    TITLE "LR_black_phrase_C05_023"
    INDEX 01 00:27:29
  TRACK 24 AUDIO
    TITLE "LR_black_phrase_C05_024"
    INDEX 01 00:27:62
  TRACK 25 AUDIO
    TITLE "LR_black_phrase_C05_025"
    INDEX 01 00:29:71
  TRACK 26 AUDIO
    TITLE "LR_black_phrase_C05_026"
    INDEX 01 00:30:70
  TRACK 27 AUDIO
    TITLE "LR_black_phrase_C05_027"
    INDEX 01 00:33:20
  TRACK 28 AUDIO
    TITLE "LR_black_phrase_C05_028"
    INDEX 01 00:33:61
  TRACK 29 AUDIO
    TITLE "LR_black_phrase_C05_029"
    INDEX 01 00:36:36
  TRACK 30 AUDIO
    TITLE "LR_black_phrase_C05_030"
    INDEX 01 00:36:61
  TRACK 31 AUDIO
    TITLE "LR_black_phrase_C05_031"
    INDEX 01 00:39:34
  TRACK 32 AUDIO
    TITLE "LR_black_phrase_C05_032"
    INDEX 01 00:40:29
  TRACK 33 AUDIO
    TITLE "LR_black_phrase_C05_033"
    INDEX 01 00:41:41
  TRACK 34 AUDIO
    TITLE "LR_black_phrase_C05_034"
    INDEX 01 00:42:03
  TRACK 35 AUDIO
    TITLE "LR_black_phrase_C05_035"
    INDEX 01 00:43:36
  TRACK 36 AUDIO
    TITLE "LR_black_phrase_C05_036"
    INDEX 01 00:44:35
  TRACK 37 AUDIO
    TITLE "LR_black_phrase_C05_037"
    INDEX 01 00:46:22
  TRACK 38 AUDIO
    TITLE "LR_black_phrase_C05_038"
    INDEX 01 00:46:59
  TRACK 39 AUDIO
    TITLE "LR_black_phrase_C05_039"
    INDEX 01 00:48:43
  TRACK 40 AUDIO
    TITLE "LR_black_phrase_C05_040"
    INDEX 01 00:48:62
  TRACK 41 AUDIO
    TITLE "LR_black_phrase_C05_041"
    INDEX 01 00:50:47
  TRACK 42 AUDIO
    TITLE "LR_black_phrase_C05_042"
    INDEX 01 00:51:47
  TRACK 43 AUDIO
    TITLE "LR_black_phrase_C05_043"
    INDEX 01 00:52:72
  TRACK 44 AUDIO
    TITLE "LR_black_phrase_C05_044"
    INDEX 01 00:53:34
  TRACK 45 AUDIO
    TITLE "LR_black_phrase_C05_045"
    INDEX 01 00:54:67
  TRACK 46 AUDIO
    TITLE "LR_black_phrase_C05_046"
    INDEX 01 00:55:66
  TRACK 47 AUDIO
    TITLE "LR_black_phrase_C05_047"
    INDEX 01 00:58:37
  TRACK 48 AUDIO
    TITLE "LR_black_phrase_C05_048"
    INDEX 01 00:59:01
  TRACK 49 AUDIO
    TITLE "LR_black_phrase_C05_049"
    INDEX 01 01:01:37
  TRACK 50 AUDIO
    TITLE "LR_black_phrase_C05_050"
    INDEX 01 01:01:73
  TRACK 51 AUDIO
    TITLE "LR_black_phrase_C05_051"
    INDEX 01 01:04:32
  TRACK 52 AUDIO
    TITLE "LR_black_phrase_C05_052"
    INDEX 01 01:05:41
  TRACK 53 AUDIO
    TITLE "LR_black_phrase_C05_053"
    INDEX 01 01:06:70
  TRACK 54 AUDIO
    TITLE "LR_black_phrase_C05_054"
    INDEX 01 01:07:34
  TRACK 55 AUDIO
    TITLE "LR_black_phrase_C05_055"
    INDEX 01 01:09:66
  TRACK 56 AUDIO
    TITLE "LR_black_phrase_C05_056"
    INDEX 01 01:10:64
  TRACK 57 AUDIO
    TITLE "LR_black_phrase_C05_057"
    INDEX 01 01:13:33
  TRACK 58 AUDIO
    TITLE "LR_black_phrase_C05_058"
    INDEX 01 01:13:72
  TRACK 59 AUDIO
    TITLE "LR_black_phrase_C05_059"
    INDEX 01 01:16:10
  TRACK 60 AUDIO
    TITLE "LR_black_phrase_C05_060"
    INDEX 01 01:16:39
  TRACK 61 AUDIO
    TITLE "LR_black_phrase_C05_061"
    INDEX 01 01:18:55
  TRACK 62 AUDIO
    TITLE "LR_black_phrase_C05_062"
    INDEX 01 01:19:57
  TRACK 63 AUDIO
    TITLE "LR_black_phrase_C05_063"
    INDEX 01 01:20:72
  TRACK 64 AUDIO
    TITLE "LR_black_phrase_C05_064"
    INDEX 01 01:21:32
  TRACK 65 AUDIO
    TITLE "LR_black_phrase_C05_065"
    INDEX 01 01:23:43
  TRACK 66 AUDIO
    TITLE "LR_black_phrase_C05_066"
    INDEX 01 01:24:44
  TRACK 67 AUDIO
    TITLE "LR_black_phrase_C05_067"
    INDEX 01 01:26:41
  TRACK 68 AUDIO
    TITLE "LR_black_phrase_C05_068"
    INDEX 01 01:26:75
  TRACK 69 AUDIO
    TITLE "LR_black_phrase_C05_069"
    INDEX 01 01:29:36
  TRACK 70 AUDIO
    TITLE "LR_black_phrase_C05_070"
    INDEX 01 01:29:55
  TRACK 71 AUDIO
    TITLE "LR_black_phrase_C05_071"
    INDEX 01 01:32:14
  TRACK 72 AUDIO
    TITLE "LR_black_phrase_C05_072"
    INDEX 01 01:33:12
  TRACK 73 AUDIO
    TITLE "LR_black_phrase_C05_073"
    INDEX 01 01:34:23
  TRACK 74 AUDIO
    TITLE "LR_black_phrase_C05_074"
    INDEX 01 01:34:56
  TRACK 75 AUDIO
    TITLE "LR_black_phrase_C05_075"
    INDEX 01 01:36:02
  TRACK 76 AUDIO
    TITLE "LR_black_phrase_C05_076"
    INDEX 01 01:36:75
  TRACK 77 AUDIO
    TITLE "LR_black_phrase_C05_077"
    INDEX 01 01:39:62
  TRACK 78 AUDIO
    TITLE "LR_black_phrase_C05_078"
    INDEX 01 01:40:20
  TRACK 79 AUDIO
    TITLE "LR_black_phrase_C05_079"
    INDEX 01 01:42:34
  TRACK 80 AUDIO
    TITLE "LR_black_phrase_C05_080"
    INDEX 01 01:42:56
  TRACK 81 AUDIO
    TITLE "LR_black_phrase_C05_081"
    INDEX 01 01:44:71
  TRACK 82 AUDIO
    TITLE "LR_black_phrase_C05_082"
    INDEX 01 01:45:72
  TRACK 83 AUDIO
    TITLE "LR_black_phrase_C05_083"
    INDEX 01 01:47:08
  TRACK 84 AUDIO
    TITLE "LR_black_phrase_C05_084"
    INDEX 01 01:47:47
  TRACK 85 AUDIO
    TITLE "LR_black_phrase_C05_085"
    INDEX 01 01:48:60
  TRACK 86 AUDIO
    TITLE "LR_black_phrase_C05_086"
    INDEX 01 01:49:60
  TRACK 87 AUDIO
    TITLE "LR_black_phrase_C05_087"
    INDEX 01 01:51:06
  TRACK 88 AUDIO
    TITLE "LR_black_phrase_C05_088"
    INDEX 01 01:51:45
  TRACK 89 AUDIO
    TITLE "LR_black_phrase_C05_089"
    INDEX 01 01:53:24
  TRACK 90 AUDIO
    TITLE "LR_black_phrase_C05_090"
    INDEX 01 01:53:52
  TRACK 91 AUDIO
    TITLE "LR_black_phrase_C05_091"
    INDEX 01 01:55:31
  TRACK 92 AUDIO
    TITLE "LR_black_phrase_C05_092"
    INDEX 01 01:56:37
  TRACK 93 AUDIO
    TITLE "LR_black_phrase_C05_093"
    INDEX 01 01:57:50
  TRACK 94 AUDIO
    TITLE "LR_black_phrase_C05_094"
    INDEX 01 01:58:14
  TRACK 95 AUDIO
    TITLE "LR_black_phrase_C05_095"
    INDEX 01 01:59:27
  TRACK 96 AUDIO
    TITLE "LR_black_phrase_C05_096"
    INDEX 01 02:00:28
  TRACK 97 AUDIO
    TITLE "LR_black_phrase_C05_097"
    INDEX 01 02:01:61
  TRACK 98 AUDIO
    TITLE "LR_black_phrase_C05_098"
    INDEX 01 02:02:27
  TRACK 99 AUDIO
    TITLE "LR_black_phrase_C05_099"
    INDEX 01 02:04:22
  TRACK 100 AUDIO
    TITLE "LR_black_phrase_C05_100"
    INDEX 01 02:04:52
  TRACK 101 AUDIO
    TITLE "LR_black_phrase_C05_101"
    INDEX 01 02:06:49
  TRACK 102 AUDIO
    TITLE "LR_black_phrase_C05_102"
    INDEX 01 02:07:46
  TRACK 103 AUDIO
    TITLE "LR_black_phrase_C05_103"
    INDEX 01 02:08:55
  TRACK 104 AUDIO
    TITLE "LR_black_phrase_C05_104"
    INDEX 01 02:09:14
  TRACK 105 AUDIO
    TITLE "LR_black_phrase_C05_105"
    INDEX 01 02:10:68
  TRACK 106 AUDIO
    TITLE "LR_black_phrase_C05_106"
    INDEX 01 02:11:67
  TRACK 107 AUDIO
    TITLE "LR_black_phrase_C05_107"
    INDEX 01 02:13:64
  TRACK 108 AUDIO
    TITLE "LR_black_phrase_C05_108"
    INDEX 01 02:14:23
  TRACK 109 AUDIO
    TITLE "LR_black_phrase_C05_109"
    INDEX 01 02:15:75
  TRACK 110 AUDIO
    TITLE "LR_black_phrase_C05_110"
    INDEX 01 02:16:20
  TRACK 111 AUDIO
    TITLE "LR_black_phrase_C05_111"
    INDEX 01 02:17:72
  TRACK 112 AUDIO
    TITLE "LR_black_phrase_C05_112"
    INDEX 01 02:18:69
  TRACK 113 AUDIO
    TITLE "LR_black_phrase_C05_113"
    INDEX 01 02:20:12
  TRACK 114 AUDIO
    TITLE "LR_black_phrase_C05_114"
    INDEX 01 02:20:47
  TRACK 115 AUDIO
    TITLE "LR_black_phrase_C05_115"
    INDEX 01 02:24:60
  TRACK 116 AUDIO
    TITLE "LR_black_phrase_C05_116"
    INDEX 01 02:25:58
  TRACK 117 AUDIO
    TITLE "LR_black_phrase_C05_117"
    INDEX 01 02:28:05
  TRACK 118 AUDIO
    TITLE "LR_black_phrase_C05_118"
    INDEX 01 02:28:40
  TRACK 119 AUDIO
    TITLE "LR_black_phrase_C05_119"
    INDEX 01 02:30:37
  TRACK 120 AUDIO
    TITLE "LR_black_phrase_C05_120"
    INDEX 01 02:30:63
  TRACK 121 AUDIO
    TITLE "LR_black_phrase_C05_121"
    INDEX 01 02:32:58
  TRACK 122 AUDIO
    TITLE "LR_black_phrase_C05_122"
    INDEX 01 02:33:59
  TRACK 123 AUDIO
    TITLE "LR_black_phrase_C05_123"
    INDEX 01 02:35:07
  TRACK 124 AUDIO
    TITLE "LR_black_phrase_C05_124"
    INDEX 01 02:35:44
  TRACK 125 AUDIO
    TITLE "LR_black_phrase_C05_125"
    INDEX 01 02:39:44
  TRACK 126 AUDIO
    TITLE "LR_black_phrase_C05_126"
    INDEX 01 02:40:46
  TRACK 127 AUDIO
    TITLE "LR_black_phrase_C05_127"
    INDEX 01 02:42:23
  TRACK 128 AUDIO
    TITLE "LR_black_phrase_C05_128"
    INDEX 01 02:42:62
  TRACK 129 AUDIO
    TITLE "LR_black_phrase_C05_129"
    INDEX 01 02:44:49
  TRACK 130 AUDIO
    TITLE "LR_black_phrase_C05_130"
    INDEX 01 02:45:02
  TRACK 131 AUDIO
    TITLE "LR_black_phrase_C05_131"
    INDEX 01 02:46:64
  TRACK 132 AUDIO
    TITLE "LR_black_phrase_C05_132"
    INDEX 01 02:47:67
  TRACK 133 AUDIO
    TITLE "LR_black_phrase_C05_133"
    INDEX 01 02:49:21
  TRACK 134 AUDIO
    TITLE "LR_black_phrase_C05_134"
    INDEX 01 02:49:62
  TRACK 135 AUDIO
    TITLE "LR_black_phrase_C05_135"
    INDEX 01 02:52:70
  TRACK 136 AUDIO
    TITLE "LR_black_phrase_C05_136"
    INDEX 01 02:53:70
  TRACK 137 AUDIO
    TITLE "LR_black_phrase_C05_137"
    INDEX 01 02:56:29
  TRACK 138 AUDIO
    TITLE "LR_black_phrase_C05_138"
    INDEX 01 02:56:66
  TRACK 139 AUDIO
    TITLE "LR_black_phrase_C05_139"
    INDEX 01 02:59:47
  TRACK 140 AUDIO
    TITLE "LR_black_phrase_C05_140"
    INDEX 01 02:59:74
  TRACK 141 AUDIO
    TITLE "LR_black_phrase_C05_141"
    INDEX 01 03:02:53
  TRACK 142 AUDIO
    TITLE "LR_black_phrase_C05_142"
    INDEX 01 03:03:56
  TRACK 143 AUDIO
    TITLE "LR_black_phrase_C05_143"
    INDEX 01 03:04:64
  TRACK 144 AUDIO
    TITLE "LR_black_phrase_C05_144"
    INDEX 01 03:05:22
  TRACK 145 AUDIO
    TITLE "LR_black_phrase_C05_145"
    INDEX 01 03:08:09
  TRACK 146 AUDIO
    TITLE "LR_black_phrase_C05_146"
    INDEX 01 03:09:10
  TRACK 147 AUDIO
    TITLE "LR_black_phrase_C05_147"
    INDEX 01 03:11:05
  TRACK 148 AUDIO
    TITLE "LR_black_phrase_C05_148"
    INDEX 01 03:11:40
  TRACK 149 AUDIO
    TITLE "LR_black_phrase_C05_149"
    INDEX 01 03:13:33
  TRACK 150 AUDIO
    TITLE "LR_black_phrase_C05_150"
    INDEX 01 03:13:53
  TRACK 151 AUDIO
    TITLE "LR_black_phrase_C05_151"
    INDEX 01 03:15:46
  TRACK 152 AUDIO
    TITLE "LR_black_phrase_C05_152"
    INDEX 01 03:16:39
  TRACK 153 AUDIO
    TITLE "LR_black_phrase_C05_153"
    INDEX 01 03:17:43
  TRACK 154 AUDIO
    TITLE "LR_black_phrase_C05_154"
    INDEX 01 03:18:03
  TRACK 155 AUDIO
    TITLE "LR_black_phrase_C05_155"
    INDEX 01 03:20:14
  TRACK 156 AUDIO
    TITLE "LR_black_phrase_C05_156"
    INDEX 01 03:21:13
  TRACK 157 AUDIO
    TITLE "LR_black_phrase_C05_157"
    INDEX 01 03:22:54
  TRACK 158 AUDIO
    TITLE "LR_black_phrase_C05_158"
    INDEX 01 03:23:10
  TRACK 159 AUDIO
    TITLE "LR_black_phrase_C05_159"
    INDEX 01 03:24:61
  TRACK 160 AUDIO
    TITLE "LR_black_phrase_C05_160"
    INDEX 01 03:25:07
  TRACK 161 AUDIO
    TITLE "LR_black_phrase_C05_161"
    INDEX 01 03:26:57
  TRACK 162 AUDIO
    TITLE "LR_black_phrase_C05_162"
    INDEX 01 03:27:59
  TRACK 163 AUDIO
    TITLE "LR_black_phrase_C05_163"
    INDEX 01 03:29:01
  TRACK 164 AUDIO
    TITLE "LR_black_phrase_C05_164"
    INDEX 01 03:29:40
  TRACK 165 AUDIO
    TITLE "LR_black_phrase_C05_165"
    INDEX 01 03:31:47
  TRACK 166 AUDIO
    TITLE "LR_black_phrase_C05_166"
    INDEX 01 03:32:44
  TRACK 167 AUDIO
    TITLE "LR_black_phrase_C05_167"
    INDEX 01 03:34:18
  TRACK 168 AUDIO
    TITLE "LR_black_phrase_C05_168"
    INDEX 01 03:34:59
  TRACK 169 AUDIO
    TITLE "LR_black_phrase_C05_169"
    INDEX 01 03:36:58
  TRACK 170 AUDIO
    TITLE "LR_black_phrase_C05_170"
    INDEX 01 03:37:12
  TRACK 171 AUDIO
    TITLE "LR_black_phrase_C05_171"
    INDEX 01 03:39:11
  TRACK 172 AUDIO
    TITLE "LR_black_phrase_C05_172"
    INDEX 01 03:40:14
  TRACK 173 AUDIO
    TITLE "LR_black_phrase_C05_173"
    INDEX 01 03:41:33
  TRACK 174 AUDIO
    TITLE "LR_black_phrase_C05_174"
    INDEX 01 03:41:69
  TRACK 175 AUDIO
    TITLE "LR_black_phrase_C05_175"
    INDEX 01 03:43:72
  TRACK 176 AUDIO
    TITLE "LR_black_phrase_C05_176"
    INDEX 01 03:44:73
  TRACK 177 AUDIO
    TITLE "LR_black_phrase_C05_177"
    INDEX 01 03:46:54
  TRACK 178 AUDIO
    TITLE "LR_black_phrase_C05_178"
    INDEX 01 03:47:20
  TRACK 179 AUDIO
    TITLE "LR_black_phrase_C05_179"
    INDEX 01 03:49:43
  TRACK 180 AUDIO
    TITLE "LR_black_phrase_C05_180"
    INDEX 01 03:49:72
  TRACK 181 AUDIO
    TITLE "LR_black_phrase_C05_181"
    INDEX 01 03:52:20
  TRACK 182 AUDIO
    TITLE "LR_black_phrase_C05_182"
    INDEX 01 03:53:23
  TRACK 183 AUDIO
    TITLE "LR_black_phrase_C05_183"
    INDEX 01 03:54:22
  TRACK 184 AUDIO
    TITLE "LR_black_phrase_C05_184"
    INDEX 01 03:54:58
  TRACK 185 AUDIO
    TITLE "LR_black_phrase_C05_185"
    INDEX 01 03:57:23
  TRACK 186 AUDIO
    TITLE "LR_black_phrase_C05_186"
    INDEX 01 03:58:22
  TRACK 187 AUDIO
    TITLE "LR_black_phrase_C05_187"
    INDEX 01 04:00:62
  TRACK 188 AUDIO
    TITLE "LR_black_phrase_C05_188"
    INDEX 01 04:01:22
  TRACK 189 AUDIO
    TITLE "LR_black_phrase_C05_189"
    INDEX 01 04:03:64
  TRACK 190 AUDIO
    TITLE "LR_black_phrase_C05_190"
    INDEX 01 04:04:09
  TRACK 191 AUDIO
    TITLE "LR_black_phrase_C05_191"
    INDEX 01 04:06:53
  TRACK 192 AUDIO
    TITLE "LR_black_phrase_C05_192"
    INDEX 01 04:07:47
  TRACK 193 AUDIO
    TITLE "LR_black_phrase_C05_193"
    INDEX 01 04:09:20
  TRACK 194 AUDIO
    TITLE "LR_black_phrase_C05_194"
    INDEX 01 04:09:55
  TRACK 195 AUDIO
    TITLE "LR_black_phrase_C05_195"
    INDEX 01 04:12:36
  TRACK 196 AUDIO
    TITLE "LR_black_phrase_C05_196"
    INDEX 01 04:13:37
  TRACK 197 AUDIO
    TITLE "LR_black_phrase_C05_197"
    INDEX 01 04:16:02
  TRACK 198 AUDIO
    TITLE "LR_black_phrase_C05_198"
    INDEX 01 04:16:38
  TRACK 199 AUDIO
    TITLE "LR_black_phrase_C05_199"
    INDEX 01 04:18:74
  TRACK 200 AUDIO
    TITLE "LR_black_phrase_C05_200"
    INDEX 01 04:19:18
  TRACK 201 AUDIO
    TITLE "LR_black_phrase_C05_201"
    INDEX 01 04:21:57
